<svg version="1.1" id="Capa_1" xmlns="http://www.w3.org/2000/svg" xmlns:xlink="http://www.w3.org/1999/xlink" x="0px" y="0px"
	 viewBox="-201 -3.5 444.8 420.3" enable-background="new -201 -3.5 444.8 420.3" xml:space="preserve">
<g>
	<path d="M-190.4,220.3L-4.6,406.2c7,7,15.7,10.6,26,10.6c10.5,0,19-3.5,25.7-10.6L233,220.3c7.2-7.2,10.8-15.9,10.8-26
		c0-9.9-3.6-18.5-10.8-25.7l-21.4-21.4c-6.9-7.2-15.4-10.9-25.7-10.9c-10.3,0-18.8,3.6-25.7,10.9l-83.9,83.7v-201
		c0-9.9-3.6-17.9-10.7-24.1c-7.1-6.2-15.8-9.3-25.8-9.3H3.1C-7-3.5-15.6-0.5-22.7,5.7c-7.1,6.2-10.7,14.2-10.7,24.1v201l-83.9-83.7
		c-6.8-7.2-15.4-10.9-25.7-10.9c-10.1,0-18.7,3.6-26,10.9l-21.4,21.4c-7,7.4-10.6,16-10.6,25.7C-201,204.2-197.5,212.9-190.4,220.3z
		"/>
</g>
</svg>
