<?xml version="1.0" encoding="utf-8"?>
<!-- Generator: Adobe Illustrator 18.1.1, SVG Export Plug-In . SVG Version: 6.00 Build 0)  -->
<svg version="1.1" id="Layer_1" xmlns="http://www.w3.org/2000/svg" xmlns:xlink="http://www.w3.org/1999/xlink" x="0px" y="0px"
	 viewBox="157 347 100 100" enable-background="new 157 347 100 100" xml:space="preserve">
<path d="M257,403v-12l-11.3-4c-0.9-3.7-2.4-7.1-4.3-10.3l0,0l5.1-10.8l-8.5-8.5l-10.8,5.1l0,0c-3.2-1.9-6.6-3.3-10.3-4.3l-4-11.3
	h-12l-4,11.3c-3.7,0.9-7.1,2.4-10.3,4.3l0,0l-10.8-5.1l-8.5,8.5l5.1,10.8l0,0c-1.9,3.2-3.3,6.6-4.3,10.3l-11.3,4v12l11.3,4
	c0.9,3.7,2.4,7.1,4.3,10.3l0,0l-5.1,10.8l8.5,8.5l10.8-5.1l0,0c3.2,1.9,6.6,3.3,10.3,4.3l4,11.3h12l4-11.3c3.7-0.9,7.1-2.4,10.3-4.3
	l0,0l10.8,5.1l8.5-8.5l-5.1-10.8l0,0c1.9-3.2,3.3-6.6,4.3-10.3L257,403z M207,417c-11,0-20-9-20-20c0-11,9-20,20-20s20,9,20,20
	S218,417,207,417z"/>
</svg>
