<?xml version="1.0" encoding="utf-8"?>
<!-- Generator: Adobe Illustrator 18.1.1, SVG Export Plug-In . SVG Version: 6.00 Build 0)  -->
<svg version="1.1" id="Layer_1" xmlns="http://www.w3.org/2000/svg" xmlns:xlink="http://www.w3.org/1999/xlink" x="0px" y="0px"
	 viewBox="581.5 346.3 100 100" enable-background="new 581.5 346.3 100 100" xml:space="preserve">
<path d="M581.5,427.5c0,2.7,0.6,5.2,1.8,7.2c2.1,3.9,5.8,6.8,11.1,8.8c4.5,1.8,9.4,2.7,14.5,2.7s9.9-0.7,14.2-2.1
	c4.3-1.4,7.9-3.2,10.7-5.5s4.9-4.9,6.5-7.9c1.5-3,2.3-6.1,2.3-9.3c0-4.5-1.2-8.3-3.6-11.6c-1.8-2.5-4.3-4.9-7.4-7.2
	c-1-0.8-2.2-1.8-3.4-2.9c-2.4-2-3.6-4-3.6-5.9c0-2.3,1.6-4.9,4.8-7.8c1.1-0.9,2.4-2.2,4-3.9c1.4-1.5,2.5-3.5,3.4-5.8
	s1.3-4.9,1.3-7.7c0-3.6-0.8-7-2.4-10.2c-1.6-3.2-3.8-5.7-6.6-7.5h8.1l8.1-4.7H619c-3.8,0-7.5,0.4-11.2,1.1
	c-5.6,1.2-10.3,4.1-14.1,8.5c-3.8,4.4-5.7,9.5-5.7,15.1c0,5.9,2.1,10.8,6.4,14.7c4.2,4,9.4,5.9,15.4,5.9c0.6,0,2-0.1,4.2-0.3
	c-0.1,0.4-0.4,1.3-0.9,2.6c-0.3,0.7-0.4,1.6-0.4,2.6c0,2.7,1.3,5.7,3.9,9c-2.6,0-5.7,0.3-9.1,0.8c-7.8,1.2-13.8,3.4-18,6.4
	c-2.4,1.8-4.4,4.1-5.8,6.9C582.2,422.3,581.5,425,581.5,427.5L581.5,427.5z M592.6,424.7c0-2.4,0.5-4.5,1.6-6.5
	c1.9-3.4,5.3-5.8,10.1-7.2c4.1-1.3,8.4-1.9,12.9-1.9c0.6,0,1.6,0.1,3,0.2c0,0,0.6,0.4,1.7,1.2s1.8,1.3,2.1,1.4
	c1,0.7,2.2,1.6,3.8,2.9c0.1,0.1,0.4,0.4,0.9,0.9c0.5,0.5,1,0.9,1.4,1.4c0.4,0.4,0.7,0.8,0.9,1c0.1,0.1,0.2,0.3,0.3,0.5
	c0.1,0.2,0.3,0.4,0.4,0.7c0.2,0.3,0.3,0.5,0.5,0.7c0.4,0.7,0.8,1.3,1,2c0.6,1.7,0.8,3.3,0.8,4.6c0,2.5-0.5,4.6-1.6,6.5
	c-1.1,1.9-2.6,3.4-4.5,4.5c-3.6,2.1-7.9,3.1-12.8,3.1c-5.4,0-10.4-1.2-14.9-3.7c-2.4-1.2-4.2-2.9-5.6-5.1
	C593.3,429.8,592.6,427.4,592.6,424.7L592.6,424.7z M599.1,364.7c0-4,1.1-7.4,3.2-10.1c2.1-2.7,5-4,8.6-4c2.6,0,4.9,0.8,7.1,2.4
	c2.2,1.6,3.9,3.7,5.2,6.4c2.5,5.3,3.8,10.4,3.8,15.5c0,4.2-0.9,7.5-2.7,9.8s-4.6,3.5-8.3,3.5c-2,0-3.9-0.5-5.8-1.6
	c-3.2-1.8-5.9-5-8.1-9.6C600.1,372.8,599.1,368.7,599.1,364.7L599.1,364.7z M643,369.3h15.4v15.4h7.7v-15.4h15.4v-7.7h-15.4v-15.3
	h-7.7v15.3H643V369.3z"/>
</svg>
