<svg version="1.1" id="Layer_1" xmlns="http://www.w3.org/2000/svg" xmlns:xlink="http://www.w3.org/1999/xlink" x="0px" y="0px"
	 viewBox="0 0 100 100" enable-background="new 0 0 100 100" xml:space="preserve">
<path d="M49.8,70.2l6.5-6.5l-8.5-8.5l-6.5,6.5v3.1h5.4v5.4H49.8z M74.4,29.8c-0.6-0.6-1.2-0.6-1.8,0.1L53,49.5
	c-0.6,0.6-0.7,1.3-0.1,1.8s1.2,0.6,1.8-0.1l19.6-19.6C75,31,75,30.4,74.4,29.8z M78.9,63.1v10.7c0,4.4-1.6,8.2-4.7,11.4
	s-7,4.7-11.4,4.7H16.1c-4.4,0-8.2-1.6-11.4-4.7S0,78.2,0,73.8V27.1c0-4.4,1.6-8.2,4.7-11.4s7-4.7,11.4-4.7h46.6
	c2.4,0,4.5,0.5,6.6,1.4c0.6,0.3,0.9,0.7,1,1.3c0.1,0.6-0.1,1.2-0.5,1.6l-2.7,2.7c-0.5,0.5-1.1,0.7-1.8,0.4c-0.9-0.2-1.7-0.3-2.5-0.3
	H16.1c-2.5,0-4.6,0.9-6.3,2.6s-2.6,3.9-2.6,6.3v46.6c0,2.5,0.9,4.6,2.6,6.3s3.9,2.6,6.3,2.6h46.6c2.5,0,4.6-0.9,6.3-2.6
	s2.6-3.9,2.6-6.3v-7.1c0-0.5,0.2-0.9,0.5-1.2l3.6-3.6c0.6-0.6,1.2-0.7,2-0.4C78.6,61.8,78.9,62.3,78.9,63.1z M73.5,21.8l16.1,16.1
	L52,75.6H35.9V59.4L73.5,21.8z M98.4,29.2l-5.2,5.2L77.1,18.2l5.2-5.2c1-1,2.3-1.6,3.8-1.6s2.8,0.5,3.8,1.6l8.5,8.5
	c1,1,1.6,2.3,1.6,3.8S99.5,28.1,98.4,29.2z"/>
</svg>
