<?xml version="1.0" encoding="utf-8"?>
<!-- Generator: Adobe Illustrator 18.1.1, SVG Export Plug-In . SVG Version: 6.00 Build 0)  -->
<svg version="1.1" id="Layer_1" xmlns="http://www.w3.org/2000/svg" xmlns:xlink="http://www.w3.org/1999/xlink" x="0px" y="0px"
	 viewBox="157 347 100 100" enable-background="new 157 347 100 100" xml:space="preserve">
<g>
	<path fill="#1b2027" d="M257,347.1c-4.8,4.7-9.6,9.6-14.4,14.3c-0.2,0.3-0.5,0-0.7-0.2c-5.5-5.4-12.2-9.4-19.5-11.8c-8.4-2.7-17.5-3.1-26.1-1.2
		c-15.3,3.3-28.7,14.3-34.9,28.7c0,0,0,0,0,0c-0.5,1-0.8,2.2-0.8,3.4c0,4.1,3.3,7.5,7.5,7.5c3.5,0,6.5-2.5,7.3-5.8
		c4.4-9.4,13.1-16.6,23.2-19.1c11.6-2.9,24.9,0.3,33.3,8.9c-4.9,4.9-9.9,9.7-14.8,14.6c13.3-0.1,26.6,0,39.9,0
		C257.1,373.3,257,360.2,257,347.1z"/>
	<path fill="#1b2027" d="M246.2,406.3c-3.3,0-6,2.1-7,5c0,0,0,0,0,0c-4.3,9.5-12.8,17-22.9,19.7c-11.8,3.2-25.3,0.1-34-8.7
		c4.9-4.9,9.9-9.6,14.8-14.5c-13.3,0-26.6,0-40,0c0,13.1,0,26.2,0,39.2c4.9-4.9,9.8-9.8,14.7-14.7c3.1,3.1,6.6,5.8,10.5,8
		c12.2,7.1,27.5,8.6,40.9,4c12.8-4.3,23.7-14.1,29.3-26.4c0.8-1.2,1.3-2.6,1.3-4.2C253.7,409.6,250.3,406.3,246.2,406.3z"/>
</g>
</svg>
