<?xml version="1.0" encoding="utf-8"?>
<!-- Generator: Adobe Illustrator 18.1.1, SVG Export Plug-In . SVG Version: 6.00 Build 0)  -->
<svg version="1.1" id="Layer_1" xmlns="http://www.w3.org/2000/svg" xmlns:xlink="http://www.w3.org/1999/xlink" x="0px" y="0px"
	 viewBox="572.3 381.7 100 100" enable-background="new 572.3 381.7 100 100" xml:space="preserve">
<path d="M641.5,424.1c0-7.4-2.6-13.8-7.9-19s-11.6-7.9-19-7.9s-13.8,2.6-19,7.9s-7.9,11.6-7.9,19c0,7.4,2.6,13.8,7.9,19
	s11.6,7.9,19,7.9s13.8-2.6,19-7.9S641.5,431.5,641.5,424.1z M672.3,474.1c0,2.1-0.8,3.9-2.3,5.4c-1.5,1.5-3.3,2.3-5.4,2.3
	c-2.2,0-4-0.8-5.4-2.3l-20.6-20.6c-7.2,5-15.2,7.5-24,7.5c-5.7,0-11.2-1.1-16.4-3.3c-5.2-2.2-9.7-5.2-13.5-9
	c-3.8-3.8-6.8-8.3-9-13.5s-3.3-10.7-3.3-16.4c0-5.7,1.1-11.2,3.3-16.4s5.2-9.7,9-13.5c3.8-3.8,8.3-6.8,13.5-9
	c5.2-2.2,10.7-3.3,16.4-3.3c5.7,0,11.2,1.1,16.4,3.3c5.2,2.2,9.7,5.2,13.5,9c3.8,3.8,6.8,8.3,9,13.5c2.2,5.2,3.3,10.7,3.3,16.4
	c0,8.8-2.5,16.8-7.5,24l20.6,20.6C671.5,470.1,672.3,471.9,672.3,474.1L672.3,474.1z"/>
</svg>
