<?xml version="1.0" encoding="utf-8"?>
<!-- Generator: Adobe Illustrator 18.1.1, SVG Export Plug-In . SVG Version: 6.00 Build 0)  -->
<svg version="1.1" id="Layer_1" xmlns="http://www.w3.org/2000/svg" xmlns:xlink="http://www.w3.org/1999/xlink" x="0px" y="0px"
	 viewBox="1208.5 639.2 100 81.3" enable-background="new 1208.5 639.2 100 81.3" xml:space="preserve">
<path d="M1208.5,711.3c1.6,0.2,3.3,0.2,4.9,0.2c9.5,0,18-2.9,25.5-8.8c-4.4-0.1-8.4-1.4-12-4.1c-3.5-2.7-5.9-6-7.2-10.2
	c1.1,0.2,2.4,0.3,3.8,0.3c1.9,0,3.7-0.2,5.4-0.7c-4.8-0.9-8.7-3.3-11.8-7c-3.1-3.8-4.7-8.1-4.7-13v-0.2c2.9,1.6,6,2.5,9.3,2.5
	c-2.8-1.8-5.1-4.3-6.7-7.3c-1.7-3-2.5-6.3-2.5-9.8c0-3.7,0.9-7.1,2.8-10.3c5.1,6.3,11.3,11.4,18.7,15.2c7.3,3.8,15.2,5.9,23.6,6.3
	c-0.4-1.8-0.6-3.4-0.6-4.7c0-5.6,2-10.5,6-14.5c4-4,8.9-6,14.6-6c5.9,0,10.9,2.2,15,6.5c4.7-1,9.1-2.7,13-5
	c-1.5,4.9-4.5,8.7-8.9,11.4c4-0.5,7.9-1.6,11.7-3.3c-2.6,4.1-6,7.6-10.2,10.7v2.7c0,5.5-0.8,11-2.4,16.5c-1.6,5.5-4,10.8-7.3,15.8
	s-7.2,9.5-11.7,13.4c-4.6,3.9-10,7-16.4,9.3c-6.4,2.3-13.2,3.5-20.5,3.5C1228.6,720.5,1218.1,717.4,1208.5,711.3z"/>
</svg>
