<svg xmlns="http://www.w3.org/2000/svg"><symbol viewBox="-201 -3.5 444.8 420.3" id="arrow"><title>arrow</title> <g> <path d="M-190.4,220.3L-4.6,406.2c7,7,15.7,10.6,26,10.6c10.5,0,19-3.5,25.7-10.6L233,220.3c7.2-7.2,10.8-15.9,10.8-26
		c0-9.9-3.6-18.5-10.8-25.7l-21.4-21.4c-6.9-7.2-15.4-10.9-25.7-10.9c-10.3,0-18.8,3.6-25.7,10.9l-83.9,83.7v-201
		c0-9.9-3.6-17.9-10.7-24.1c-7.1-6.2-15.8-9.3-25.8-9.3H3.1C-7-3.5-15.6-0.5-22.7,5.7c-7.1,6.2-10.7,14.2-10.7,24.1v201l-83.9-83.7
		c-6.8-7.2-15.4-10.9-25.7-10.9c-10.1,0-18.7,3.6-26,10.9l-21.4,21.4c-7,7.4-10.6,16-10.6,25.7C-201,204.2-197.5,212.9-190.4,220.3z
		"/> </g> </symbol><symbol viewBox="157 347 100 100" id="close"><title>close</title> <path d="M257,357.1L246.9,347L207,386.9L167.1,347L157,357.1l39.9,39.9L157,436.9l10.1,10.1l39.9-39.9l39.9,39.9
	l10.1-10.1L217.1,397L257,357.1z"/> </symbol><symbol viewBox="100 314.8 46.6 100" id="facebook"><title>facebook</title> <path d="M131,347.6h15.6l-1.8,17.2H131v50h-20.7v-50H100v-17.2h10.3v-10.4c0-7.4,1.7-12.9,5.2-16.7c3.5-3.8,9.2-5.7,17.2-5.7h13.8
	V332h-8.6c-1.6,0-2.8,0.1-3.8,0.4c-1,0.3-1.6,0.7-2.1,1.4c-0.4,0.7-0.7,1.4-0.8,2.1c-0.1,0.7-0.2,1.7-0.2,3V347.6L131,347.6z"/> </symbol><symbol viewBox="157 347 100 100" id="gear"><title>gear</title> <path d="M257,403v-12l-11.3-4c-0.9-3.7-2.4-7.1-4.3-10.3l0,0l5.1-10.8l-8.5-8.5l-10.8,5.1l0,0c-3.2-1.9-6.6-3.3-10.3-4.3l-4-11.3
	h-12l-4,11.3c-3.7,0.9-7.1,2.4-10.3,4.3l0,0l-10.8-5.1l-8.5,8.5l5.1,10.8l0,0c-1.9,3.2-3.3,6.6-4.3,10.3l-11.3,4v12l11.3,4
	c0.9,3.7,2.4,7.1,4.3,10.3l0,0l-5.1,10.8l8.5,8.5l10.8-5.1l0,0c3.2,1.9,6.6,3.3,10.3,4.3l4,11.3h12l4-11.3c3.7-0.9,7.1-2.4,10.3-4.3
	l0,0l10.8,5.1l8.5-8.5l-5.1-10.8l0,0c1.9-3.2,3.3-6.6,4.3-10.3L257,403z M207,417c-11,0-20-9-20-20c0-11,9-20,20-20s20,9,20,20
	S218,417,207,417z"/> </symbol><symbol viewBox="581.5 346.3 100 100" id="gplus"><title>gplus</title> <path d="M581.5,427.5c0,2.7,0.6,5.2,1.8,7.2c2.1,3.9,5.8,6.8,11.1,8.8c4.5,1.8,9.4,2.7,14.5,2.7s9.9-0.7,14.2-2.1
	c4.3-1.4,7.9-3.2,10.7-5.5s4.9-4.9,6.5-7.9c1.5-3,2.3-6.1,2.3-9.3c0-4.5-1.2-8.3-3.6-11.6c-1.8-2.5-4.3-4.9-7.4-7.2
	c-1-0.8-2.2-1.8-3.4-2.9c-2.4-2-3.6-4-3.6-5.9c0-2.3,1.6-4.9,4.8-7.8c1.1-0.9,2.4-2.2,4-3.9c1.4-1.5,2.5-3.5,3.4-5.8
	s1.3-4.9,1.3-7.7c0-3.6-0.8-7-2.4-10.2c-1.6-3.2-3.8-5.7-6.6-7.5h8.1l8.1-4.7H619c-3.8,0-7.5,0.4-11.2,1.1
	c-5.6,1.2-10.3,4.1-14.1,8.5c-3.8,4.4-5.7,9.5-5.7,15.1c0,5.9,2.1,10.8,6.4,14.7c4.2,4,9.4,5.9,15.4,5.9c0.6,0,2-0.1,4.2-0.3
	c-0.1,0.4-0.4,1.3-0.9,2.6c-0.3,0.7-0.4,1.6-0.4,2.6c0,2.7,1.3,5.7,3.9,9c-2.6,0-5.7,0.3-9.1,0.8c-7.8,1.2-13.8,3.4-18,6.4
	c-2.4,1.8-4.4,4.1-5.8,6.9C582.2,422.3,581.5,425,581.5,427.5L581.5,427.5z M592.6,424.7c0-2.4,0.5-4.5,1.6-6.5
	c1.9-3.4,5.3-5.8,10.1-7.2c4.1-1.3,8.4-1.9,12.9-1.9c0.6,0,1.6,0.1,3,0.2c0,0,0.6,0.4,1.7,1.2s1.8,1.3,2.1,1.4
	c1,0.7,2.2,1.6,3.8,2.9c0.1,0.1,0.4,0.4,0.9,0.9c0.5,0.5,1,0.9,1.4,1.4c0.4,0.4,0.7,0.8,0.9,1c0.1,0.1,0.2,0.3,0.3,0.5
	c0.1,0.2,0.3,0.4,0.4,0.7c0.2,0.3,0.3,0.5,0.5,0.7c0.4,0.7,0.8,1.3,1,2c0.6,1.7,0.8,3.3,0.8,4.6c0,2.5-0.5,4.6-1.6,6.5
	c-1.1,1.9-2.6,3.4-4.5,4.5c-3.6,2.1-7.9,3.1-12.8,3.1c-5.4,0-10.4-1.2-14.9-3.7c-2.4-1.2-4.2-2.9-5.6-5.1
	C593.3,429.8,592.6,427.4,592.6,424.7L592.6,424.7z M599.1,364.7c0-4,1.1-7.4,3.2-10.1c2.1-2.7,5-4,8.6-4c2.6,0,4.9,0.8,7.1,2.4
	c2.2,1.6,3.9,3.7,5.2,6.4c2.5,5.3,3.8,10.4,3.8,15.5c0,4.2-0.9,7.5-2.7,9.8s-4.6,3.5-8.3,3.5c-2,0-3.9-0.5-5.8-1.6
	c-3.2-1.8-5.9-5-8.1-9.6C600.1,372.8,599.1,368.7,599.1,364.7L599.1,364.7z M643,369.3h15.4v15.4h7.7v-15.4h15.4v-7.7h-15.4v-15.3
	h-7.7v15.3H643V369.3z"/> </symbol><symbol viewBox="157 358.8 100 76.5" id="menu"><title>menu</title> <path id="svgstore9a3fdbb38e7dd1a86190df589f35d3e5menu-icon" d="M257,374.5H157v-15.8h100V374.5z M257,389.1H157v15.8h100V389.1z M257,419.5H157v15.8h100V419.5z"/> </symbol><symbol viewBox="0 0 100 100" id="pencil-square-o"><title>pencil-square-o</title> <path d="M49.8,70.2l6.5-6.5l-8.5-8.5l-6.5,6.5v3.1h5.4v5.4H49.8z M74.4,29.8c-0.6-0.6-1.2-0.6-1.8,0.1L53,49.5
	c-0.6,0.6-0.7,1.3-0.1,1.8s1.2,0.6,1.8-0.1l19.6-19.6C75,31,75,30.4,74.4,29.8z M78.9,63.1v10.7c0,4.4-1.6,8.2-4.7,11.4
	s-7,4.7-11.4,4.7H16.1c-4.4,0-8.2-1.6-11.4-4.7S0,78.2,0,73.8V27.1c0-4.4,1.6-8.2,4.7-11.4s7-4.7,11.4-4.7h46.6
	c2.4,0,4.5,0.5,6.6,1.4c0.6,0.3,0.9,0.7,1,1.3c0.1,0.6-0.1,1.2-0.5,1.6l-2.7,2.7c-0.5,0.5-1.1,0.7-1.8,0.4c-0.9-0.2-1.7-0.3-2.5-0.3
	H16.1c-2.5,0-4.6,0.9-6.3,2.6s-2.6,3.9-2.6,6.3v46.6c0,2.5,0.9,4.6,2.6,6.3s3.9,2.6,6.3,2.6h46.6c2.5,0,4.6-0.9,6.3-2.6
	s2.6-3.9,2.6-6.3v-7.1c0-0.5,0.2-0.9,0.5-1.2l3.6-3.6c0.6-0.6,1.2-0.7,2-0.4C78.6,61.8,78.9,62.3,78.9,63.1z M73.5,21.8l16.1,16.1
	L52,75.6H35.9V59.4L73.5,21.8z M98.4,29.2l-5.2,5.2L77.1,18.2l5.2-5.2c1-1,2.3-1.6,3.8-1.6s2.8,0.5,3.8,1.6l8.5,8.5
	c1,1,1.6,2.3,1.6,3.8S99.5,28.1,98.4,29.2z"/> </symbol><symbol viewBox="157 347 100 100" id="refresh"><title>refresh</title> <g> <path fill="#1b2027" d="M257,347.1c-4.8,4.7-9.6,9.6-14.4,14.3c-0.2,0.3-0.5,0-0.7-0.2c-5.5-5.4-12.2-9.4-19.5-11.8c-8.4-2.7-17.5-3.1-26.1-1.2
		c-15.3,3.3-28.7,14.3-34.9,28.7c0,0,0,0,0,0c-0.5,1-0.8,2.2-0.8,3.4c0,4.1,3.3,7.5,7.5,7.5c3.5,0,6.5-2.5,7.3-5.8
		c4.4-9.4,13.1-16.6,23.2-19.1c11.6-2.9,24.9,0.3,33.3,8.9c-4.9,4.9-9.9,9.7-14.8,14.6c13.3-0.1,26.6,0,39.9,0
		C257.1,373.3,257,360.2,257,347.1z"/> <path fill="#1b2027" d="M246.2,406.3c-3.3,0-6,2.1-7,5c0,0,0,0,0,0c-4.3,9.5-12.8,17-22.9,19.7c-11.8,3.2-25.3,0.1-34-8.7
		c4.9-4.9,9.9-9.6,14.8-14.5c-13.3,0-26.6,0-40,0c0,13.1,0,26.2,0,39.2c4.9-4.9,9.8-9.8,14.7-14.7c3.1,3.1,6.6,5.8,10.5,8
		c12.2,7.1,27.5,8.6,40.9,4c12.8-4.3,23.7-14.1,29.3-26.4c0.8-1.2,1.3-2.6,1.3-4.2C253.7,409.6,250.3,406.3,246.2,406.3z"/> </g> </symbol><symbol viewBox="572.3 381.7 100 100" id="search"><title>search</title> <path d="M641.5,424.1c0-7.4-2.6-13.8-7.9-19s-11.6-7.9-19-7.9s-13.8,2.6-19,7.9s-7.9,11.6-7.9,19c0,7.4,2.6,13.8,7.9,19
	s11.6,7.9,19,7.9s13.8-2.6,19-7.9S641.5,431.5,641.5,424.1z M672.3,474.1c0,2.1-0.8,3.9-2.3,5.4c-1.5,1.5-3.3,2.3-5.4,2.3
	c-2.2,0-4-0.8-5.4-2.3l-20.6-20.6c-7.2,5-15.2,7.5-24,7.5c-5.7,0-11.2-1.1-16.4-3.3c-5.2-2.2-9.7-5.2-13.5-9
	c-3.8-3.8-6.8-8.3-9-13.5s-3.3-10.7-3.3-16.4c0-5.7,1.1-11.2,3.3-16.4s5.2-9.7,9-13.5c3.8-3.8,8.3-6.8,13.5-9
	c5.2-2.2,10.7-3.3,16.4-3.3c5.7,0,11.2,1.1,16.4,3.3c5.2,2.2,9.7,5.2,13.5,9c3.8,3.8,6.8,8.3,9,13.5c2.2,5.2,3.3,10.7,3.3,16.4
	c0,8.8-2.5,16.8-7.5,24l20.6,20.6C671.5,470.1,672.3,471.9,672.3,474.1L672.3,474.1z"/> </symbol><symbol viewBox="1208.5 639.2 100 81.3" id="twitter"><title>twitter</title> <path d="M1208.5,711.3c1.6,0.2,3.3,0.2,4.9,0.2c9.5,0,18-2.9,25.5-8.8c-4.4-0.1-8.4-1.4-12-4.1c-3.5-2.7-5.9-6-7.2-10.2
	c1.1,0.2,2.4,0.3,3.8,0.3c1.9,0,3.7-0.2,5.4-0.7c-4.8-0.9-8.7-3.3-11.8-7c-3.1-3.8-4.7-8.1-4.7-13v-0.2c2.9,1.6,6,2.5,9.3,2.5
	c-2.8-1.8-5.1-4.3-6.7-7.3c-1.7-3-2.5-6.3-2.5-9.8c0-3.7,0.9-7.1,2.8-10.3c5.1,6.3,11.3,11.4,18.7,15.2c7.3,3.8,15.2,5.9,23.6,6.3
	c-0.4-1.8-0.6-3.4-0.6-4.7c0-5.6,2-10.5,6-14.5c4-4,8.9-6,14.6-6c5.9,0,10.9,2.2,15,6.5c4.7-1,9.1-2.7,13-5
	c-1.5,4.9-4.5,8.7-8.9,11.4c4-0.5,7.9-1.6,11.7-3.3c-2.6,4.1-6,7.6-10.2,10.7v2.7c0,5.5-0.8,11-2.4,16.5c-1.6,5.5-4,10.8-7.3,15.8
	s-7.2,9.5-11.7,13.4c-4.6,3.9-10,7-16.4,9.3c-6.4,2.3-13.2,3.5-20.5,3.5C1228.6,720.5,1218.1,717.4,1208.5,711.3z"/> </symbol></svg>